<svg xmlns="http://www.w3.org/2000/svg" viewBox="0 0 200 200"><defs><linearGradient id="a" x1="100" y1="193.85" x2="100" y2="4.35" gradientUnits="userSpaceOnUse"><stop offset="0" stop-color="#00a0ff"/><stop offset="1" stop-color="#06f"/></linearGradient></defs><path d="M180.33 66.79A90.45 90.45 0 00100 6.15a90.45 90.45 0 00-80.33 60.64h-.1a19.2 19.2 0 00-13.42 18.2 19.25 19.25 0 0019.22 19.23h3.48a58.37 58.37 0 0150.83 29.66h-48.4a19.23 19.23 0 00-19.23 19.23 19.21 19.21 0 0019.23 19.22h150.86a19.22 19.22 0 0019.22-19.22 19.21 19.21 0 00-19.22-19.23h-48.4a58.37 58.37 0 0150.83-29.66h3.48a19.24 19.24 0 0019.23-19.23 19.21 19.21 0 00-13.52-18.2z" fill="url(#a)"/><path d="M150.15 104.22h-100.3a58.42 58.42 0 00-10.22 1.21 19.23 19.23 0 0110.22-1.21h100.3a19.23 19.23 0 0110.22 1.21 58.42 58.42 0 00-10.22-1.21z" fill="#fff" opacity=".3"/><path d="M146 67.73a89.45 89.45 0 00-46-29.28 89.45 89.45 0 00-46 29.28h-.1a19.27 19.27 0 00-2.83 2.35c.8-.2 1.62-.35 2.45-.45h90.76c.83.1 1.65.25 2.45.45a19.27 19.27 0 00-2.83-2.35zM100 161.55a58.12 58.12 0 00-29.31-8.58h58.62a58.12 58.12 0 00-29.31 8.58z" fill="#fff" opacity=".3"/></svg> 